<?xml version="1.0" encoding="utf-8"?>
<!-- Generator: Adobe Illustrator 16.0.0, SVG Export Plug-In . SVG Version: 6.00 Build 0)  -->
<!DOCTYPE svg PUBLIC "-//W3C//DTD SVG 1.1//EN" "http://www.w3.org/Graphics/SVG/1.1/DTD/svg11.dtd">
<svg version="1.1" id="Layer_1" xmlns="http://www.w3.org/2000/svg" xmlns:xlink="http://www.w3.org/1999/xlink" x="0px" y="0px"
	 width="100%" height="100%" viewBox="0 0 914.667 280" enable-background="new 0 0 914.667 280" xml:space="preserve">
<g>
	<g>
		<g id="_x7D_">
			<rect x="794.333" y="240.5" fill="rgb(222,222,222)" width="40" height="40"/>
			<rect x="834.333" y="79.5" fill="rgb(222,222,222)" width="40" height="40"/>
			<rect x="874.333" y="119.5" fill="rgb(222,222,222)" width="40" height="41"/>
			<rect x="834.333" y="160.5" fill="rgb(222,222,222)" width="40" height="40"/>
			<rect x="834.333" y="200.5" fill="rgb(222,222,222)" width="40" height="40"/>
			<rect x="794.333" y="-0.5" fill="rgb(222,222,222)" width="40" height="40"/>
			<rect x="834.333" y="39.5" fill="rgb(222,222,222)" width="40" height="40"/>
		</g>	
	</g>
	<g>
		<g id="_x7B_">
			<rect x="80.333" y="-0.5" fill="rgb(222,222,222)" width="40" height="40"/>
			<rect x="40.333" y="160.5" fill="rgb(222,222,222)" width="40" height="40"/>
			<rect x="0.333" y="119.5" fill="rgb(222,222,222)" width="40" height="41"/>
			<rect x="40.333" y="79.5" fill="rgb(222,222,222)" width="40" height="40"/>
			<rect x="40.333" y="39.5" fill="rgb(222,222,222)" width="40" height="40"/>
			<rect x="80.333" y="240.5" fill="rgb(222,222,222)" width="40" height="40"/>
			<rect x="40.333" y="200.5" fill="rgb(222,222,222)" width="40" height="40"/>
		</g>
	</g>
</g>	
</svg>
