<?xml version="1.0" encoding="utf-8"?>
<!-- Generator: Adobe Illustrator 16.0.0, SVG Export Plug-In . SVG Version: 6.00 Build 0)  -->
<!DOCTYPE svg PUBLIC "-//W3C//DTD SVG 1.1//EN" "http://www.w3.org/Graphics/SVG/1.1/DTD/svg11.dtd">
<svg version="1.1" id="Layer_1" xmlns="http://www.w3.org/2000/svg" xmlns:xlink="http://www.w3.org/1999/xlink" x="0px" y="0px"
	 width="100%" height="100%" viewBox="0 0 914.667 280" enable-background="new 0 0 914.667 280" xml:space="preserve">
<g>	
	<g>
		<polyline fill="#E1E43C" points="160.333,239.5 160.333,172.918 180.89,145.691 260.902,39.106 361.333,172.918 361.333,239.823 
			260.833,105.851 	"/>
		<polyline fill="#4EC3C7" points="361.333,239.5 402.333,239.5 402.333,38.5 361.333,38.5 	"/>
		<polyline fill="#4EC3C7" points="402.056,106.012 502.333,239.823 502.333,172.918 402.016,39.106 	"/>
		<polyline fill="#C6A9B5" points="502.333,239.5 543.333,239.5 543.333,38.5 502.333,38.5 	"/>
		<polyline fill="#F4BB3A" points="744.333,239.5 677.119,239.5 649.892,219.242 543.308,139.081 677.119,38.5 744.025,38.5 
			610.368,139 	"/>
	</g>
	<g>
		<g id="_x7D_">
			<rect x="794.333" y="240.5" fill="rgba(255,255,255,0.9)" width="40" height="40"/>
			<rect x="834.333" y="79.5" fill="rgba(255,255,255,0.5)" width="40" height="40"/>
			<rect x="874.333" y="119.5" fill="rgba(255,255,255,0.3)" width="40" height="41"/>
			<rect x="834.333" y="160.5" fill="rgba(255,255,255,0.5)" width="40" height="40"/>
			<rect x="834.333" y="200.5" fill="rgba(255,255,255,0.7)" width="40" height="40"/>
			<rect x="794.333" y="-0.5" fill="rgba(255,255,255,0.9)" width="40" height="40"/>
			<rect x="834.333" y="39.5" fill="rgba(255,255,255,0.7)" width="40" height="40"/>
		</g>	
	</g>
	<g>
		<g id="_x7B_">
			<rect x="80.333" y="-0.5" fill="rgba(255,255,255,0.9)" width="40" height="40"/>
			<rect x="40.333" y="160.5" fill="rgba(255,255,255,0.5)" width="40" height="40"/>
			<rect x="0.333" y="119.5" fill="rgba(255,255,255,0.3)" width="40" height="41"/>
			<rect x="40.333" y="79.5" fill="rgba(255,255,255,0.5)" width="40" height="40"/>
			<rect x="40.333" y="39.5" fill="rgba(255,255,255,0.7)" width="40" height="40"/>
			<rect x="80.333" y="240.5" fill="rgba(255,255,255,0.9)" width="40" height="40"/>
			<rect x="40.333" y="200.5" fill="rgba(255,255,255,0.7)" width="40" height="40"/>
		</g>
	</g>
</g>	
</svg>
