<?xml version="1.0" encoding="utf-8"?>
<!-- Generator: Adobe Illustrator 16.0.0, SVG Export Plug-In . SVG Version: 6.00 Build 0)  -->
<!DOCTYPE svg PUBLIC "-//W3C//DTD SVG 1.1//EN" "http://www.w3.org/Graphics/SVG/1.1/DTD/svg11.dtd">
<svg version="1.1" id="Layer_1" xmlns="http://www.w3.org/2000/svg" xmlns:xlink="http://www.w3.org/1999/xlink" x="0px" y="0px"
	 width="100%" height="100%" viewBox="0 0 914.667 360" enable-background="new 0 0 914.667 360" xml:space="preserve">
<g>
	<g id="blank__x7B_">
	</g>
	<g id="_x7B_">
		<rect x="80" y="0" fill="#CA6028" width="40" height="40"/>
		<rect x="40" y="40" fill="#C85230" width="40" height="40"/>
		<rect x="40" y="80" fill="#A04127" width="40" height="40"/>
		<rect x="40" y="120" fill="#BC4853" width="40" height="40"/>
		<rect x="0" y="160" fill="#913C4A" width="40" height="40"/>
		<rect x="40" y="200" fill="#894666" width="40" height="40"/>
		<rect x="40" y="240" fill="#5E475B" width="40" height="40"/>
		<rect x="40" y="280" fill="#1B170F" width="40" height="40"/>
		<rect x="80" y="320" fill="#1B170F" width="40" height="40"/>
	</g>
</g>
<g>
	<g id="blank__x7B__2_">
	</g>
	<g id="_x7B__1_">
		<rect x="794.333" y="0" fill="#CA6028" width="40" height="40"/>
		<rect x="834.333" y="40" fill="#C85230" width="40" height="40"/>
		<rect x="834.333" y="80" fill="#A04127" width="40" height="40"/>
		<rect x="834.333" y="120" fill="#BC4853" width="40" height="40"/>
		<rect x="874.333" y="160" fill="#913C4A" width="40" height="40"/>
		<rect x="834.333" y="200" fill="#894666" width="40" height="40"/>
		<rect x="834.333" y="240" fill="#5E475B" width="40" height="40"/>
		<rect x="834.333" y="280" fill="#1B170F" width="40" height="40"/>
		<rect x="794.333" y="320" fill="#1B170F" width="40" height="40"/>
	</g>
</g>
</svg>
